<?xml version="1.0" encoding="UTF-8"?>
<svg width="48px" height="48px" viewBox="0 0 48 48" version="1.1" xmlns="http://www.w3.org/2000/svg" xmlns:xlink="http://www.w3.org/1999/xlink">
    <!-- Generator: Sketch 49 (51002) - http://www.bohemiancoding.com/sketch -->
    <title>icon_facebook</title>
    <desc>Created with Sketch.</desc>
    <defs></defs>
    <g id="Page-1" stroke="none" stroke-width="1" fill="none" fill-rule="evenodd">
        <g id="desktop" transform="translate(-1214.000000, -209.000000)" fill="#191919" fill-rule="nonzero">
            <g id="socialmedia-round" transform="translate(1214.000000, 209.000000)">
                <g id="icon_facebook">
                    <path d="M24,48 C10.745166,48 0,37.254834 0,24 C0,10.745166 10.745166,0 24,0 C37.254834,0 48,10.745166 48,24 C48,37.254834 37.254834,48 24,48 Z M22.2491964,21 L20,21 L20,24 L22.2491964,24 L22.2491964,33 L25.9978571,33 L25.9978571,24 L28.7283815,24 L28.9967856,21 L25.9978571,21 L25.9978571,19.74975 C25.9978571,19.0335 26.1418057,18.75 26.8338084,18.75 L28.9967856,18.75 L28.9967856,15 L26.1418057,15 C23.4457689,15 22.2491964,16.18725 22.2491964,18.46125 L22.2491964,21 Z" id="Combined-Shape"></path>
                </g>
            </g>
        </g>
    </g>
</svg>