<?xml version="1.0" encoding="UTF-8"?>
<svg width="48px" height="48px" viewBox="0 0 48 48" version="1.1" xmlns="http://www.w3.org/2000/svg" xmlns:xlink="http://www.w3.org/1999/xlink">
    <!-- Generator: Sketch 49 (51002) - http://www.bohemiancoding.com/sketch -->
    <title>icon_instagram</title>
    <desc>Created with Sketch.</desc>
    <defs></defs>
    <g id="Page-1" stroke="none" stroke-width="1" fill="none" fill-rule="evenodd">
        <g id="desktop" transform="translate(-1322.000000, -209.000000)" fill="#191919">
            <g id="socialmedia-round" transform="translate(1214.000000, 209.000000)">
                <g id="icon_instagram" transform="translate(108.000000, 0.000000)">
                    <path d="M24,48 C10.745166,48 0,37.254834 0,24 C0,10.745166 10.745166,0 24,0 C37.254834,0 48,10.745166 48,24 C48,37.254834 37.254834,48 24,48 Z M24,14.98275 C26.937,14.98275 27.2853333,14.99375 28.4458333,15.0469167 C31.4268333,15.1825833 32.81925,16.597 32.9549167,19.556 C33.0080833,20.7155833 33.0181667,21.0639167 33.0181667,24.0009167 C33.0181667,26.9388333 33.0071667,27.28625 32.9549167,28.4458333 C32.8183333,31.4020833 31.4295833,32.81925 28.4458333,32.9549167 C27.2853333,33.0080833 26.9388333,33.0190833 24,33.0190833 C21.063,33.0190833 20.7146667,33.0080833 19.5550833,32.9549167 C16.56675,32.8183333 15.1816667,31.3975 15.046,28.4449167 C14.9928333,27.2853333 14.9818333,26.9379167 14.9818333,24 C14.9818333,21.063 14.99375,20.7155833 15.046,19.5550833 C15.1825833,16.597 16.5713333,15.1816667 19.5550833,15.046 C20.7155833,14.99375 21.063,14.98275 24,14.98275 Z M24,13 C21.0125833,13 20.6385833,13.0128333 19.46525,13.066 C15.4704167,13.2493333 13.25025,15.4658333 13.0669167,19.4643333 C13.0128333,20.6385833 13,21.0125833 13,24 C13,26.9874167 13.0128333,27.3623333 13.066,28.5356667 C13.2493333,32.5305 15.4658333,34.7506667 19.4643333,34.934 C20.6385833,34.9871667 21.0125833,35 24,35 C26.9874167,35 27.3623333,34.9871667 28.5356667,34.934 C32.5268333,34.7506667 34.7525,32.5341667 34.9330833,28.5356667 C34.9871667,27.3623333 35,26.9874167 35,24 C35,21.0125833 34.9871667,20.6385833 34.934,19.46525 C34.7543333,15.4740833 32.5350833,13.25025 28.5365833,13.0669167 C27.3623333,13.0128333 26.9874167,13 24,13 Z M24,18.3515 C20.8805833,18.3515 18.3515,20.8805833 18.3515,24 C18.3515,27.1194167 20.8805833,29.6494167 24,29.6494167 C27.1194167,29.6494167 29.6485,27.1203333 29.6485,24 C29.6485,20.8805833 27.1194167,18.3515 24,18.3515 Z M24,27.6666667 C21.9750833,27.6666667 20.3333333,26.0258333 20.3333333,24 C20.3333333,21.9750833 21.9750833,20.3333333 24,20.3333333 C26.0249167,20.3333333 27.6666667,21.9750833 27.6666667,24 C27.6666667,26.0258333 26.0249167,27.6666667 24,27.6666667 Z M29.8721667,16.80875 C29.1425,16.80875 28.55125,17.4 28.55125,18.12875 C28.55125,18.8575 29.1425,19.44875 29.8721667,19.44875 C30.6009167,19.44875 31.19125,18.8575 31.19125,18.12875 C31.19125,17.4 30.6009167,16.80875 29.8721667,16.80875 Z" id="Combined-Shape"></path>
                </g>
            </g>
        </g>
    </g>
</svg>