<svg class="c-icon" width="48" height="48" viewBox="0 0 48 48" xmlns="http://www.w3.org/2000/svg" role="img">
  <title>Instagram</title>
  <desc>Instagram icon</desc>
  <path d="M24 48C10.745 48 0 37.255 0 24S10.745 0 24 0s24 10.745 24 24-10.745 24-24 24zm0-33.017c2.937 0 3.285.01 4.446.064 2.98.136 4.373 1.55 4.509 4.509.053 1.16.063 1.508.063 4.445 0 2.938-.01 3.285-.063 4.445-.137 2.956-1.525 4.373-4.51 4.509-1.16.053-1.506.064-4.445.064-2.937 0-3.285-.01-4.445-.064-2.988-.137-4.373-1.557-4.509-4.51-.053-1.16-.064-1.507-.064-4.445 0-2.937.012-3.284.064-4.445.137-2.958 1.525-4.373 4.51-4.509 1.16-.052 1.507-.063 4.444-.063zM24 13c-2.987 0-3.361.013-4.535.066-3.995.183-6.215 2.4-6.398 6.398C13.013 20.64 13 21.013 13 24c0 2.987.013 3.362.066 4.536.183 3.995 2.4 6.215 6.398 6.398C20.64 34.987 21.013 35 24 35c2.987 0 3.362-.013 4.536-.066 3.99-.183 6.216-2.4 6.397-6.398.054-1.174.067-1.549.067-4.536 0-2.987-.013-3.361-.066-4.535-.18-3.99-2.399-6.215-6.397-6.398C27.362 13.013 26.987 13 24 13zm0 5.352a5.649 5.649 0 1 0 0 11.297 5.649 5.649 0 0 0 0-11.297zm0 9.315a3.666 3.666 0 1 1 0-7.333 3.666 3.666 0 0 1 0 7.333zm5.872-10.858a1.32 1.32 0 1 0 0 2.64 1.32 1.32 0 0 0 0-2.64z" fill="currentColor" fill-rule="evenodd"/>
</svg>
