<?xml version="1.0" encoding="UTF-8"?>
<svg width="48px" height="48px" viewBox="0 0 48 48" version="1.1" xmlns="http://www.w3.org/2000/svg" xmlns:xlink="http://www.w3.org/1999/xlink">
    <!-- Generator: Sketch 49 (51002) - http://www.bohemiancoding.com/sketch -->
    <title>icon_linkedin</title>
    <desc>Created with Sketch.</desc>
    <defs></defs>
    <g id="Page-1" stroke="none" stroke-width="1" fill="none" fill-rule="evenodd">
        <g id="desktop" transform="translate(-1268.000000, -209.000000)" fill="#191919">
            <g id="socialmedia-round" transform="translate(1214.000000, 209.000000)">
                <g id="icon_linkedin" transform="translate(54.000000, 0.000000)">
                    <path d="M24,48 C10.745166,48 0,37.254834 0,24 C0,10.745166 10.745166,0 24,0 C37.254834,0 48,10.745166 48,24 C48,37.254834 37.254834,48 24,48 Z M18.2727273,15.6363636 C18.2727273,14.7330909 17.5403226,14 16.6363636,14 C15.7324047,14 15,14.7330909 15,15.6363636 C15,16.5402909 15.7324047,17.2727273 16.6363636,17.2727273 C17.5403226,17.2727273 18.2727273,16.5402909 18.2727273,15.6363636 Z M18.2727273,18.9090909 L15,18.9090909 L15,32 L18.2727273,32 L18.2727273,18.9090909 Z M25.1052057,19.30048 L21.5454545,19.30048 L21.5454545,32 L25.1059222,32 L25.1059222,25.3335457 C25.1059222,21.6268734 29.4259181,21.3236723 29.4259181,25.3335457 L29.4259181,32 L33,32 L33,23.9588227 C33,17.7043091 26.6070653,17.9321068 25.1052057,21.0109466 L25.1052057,19.30048 Z" id="Combined-Shape"></path>
                </g>
            </g>
        </g>
    </g>
</svg>